<svg width="25" height="24" viewBox="0 0 25 24" fill="none" xmlns="http://www.w3.org/2000/svg">
<path d="M19.7324 3.6192C19.7042 3.44999 19.64 3.2888 19.5442 3.14648C19.4485 3.00416 19.3233 2.88403 19.1771 2.79419C19.031 2.70435 18.8673 2.64688 18.6971 2.62567C18.5269 2.60445 18.3541 2.61998 18.1904 2.6712L9.79035 5.2956C9.5461 5.37185 9.33262 5.52418 9.18107 5.73035C9.02952 5.93651 8.94784 6.18573 8.94795 6.4416V16.2C8.40731 15.7945 7.74559 15.5835 7.07001 15.601C6.39443 15.6186 5.74456 15.8637 5.22571 16.2967C4.70686 16.7298 4.34941 17.3253 4.21128 17.9868C4.07316 18.6484 4.16244 19.3372 4.46467 19.9416C4.7669 20.5461 5.26437 21.0308 5.87648 21.3172C6.48859 21.6037 7.17948 21.675 7.83721 21.5197C8.49494 21.3645 9.08098 20.9917 9.50037 20.4618C9.91977 19.9318 10.148 19.2758 10.148 18.6V10.0416L18.548 7.416V10.8276C18.9596 10.8636 19.3616 10.9392 19.748 11.0484V3.816C19.748 3.7488 19.742 3.684 19.7324 3.6192ZM23.348 17.4C23.348 18.8322 22.779 20.2057 21.7663 21.2184C20.7536 22.2311 19.3801 22.8 17.948 22.8C16.5158 22.8 15.1423 22.2311 14.1296 21.2184C13.1169 20.2057 12.548 18.8322 12.548 17.4C12.548 15.9678 13.1169 14.5943 14.1296 13.5816C15.1423 12.5689 16.5158 12 17.948 12C19.3801 12 20.7536 12.5689 21.7663 13.5816C22.779 14.5943 23.348 15.9678 23.348 17.4ZM20.6324 16.878L17.0396 14.898C16.9483 14.8475 16.8454 14.8217 16.741 14.8231C16.6367 14.8245 16.5346 14.8531 16.4447 14.906C16.3548 14.959 16.2802 15.0345 16.2284 15.125C16.1766 15.2156 16.1493 15.3181 16.1492 15.4224V19.3824C16.1491 19.4868 16.1762 19.5895 16.228 19.6802C16.2797 19.7709 16.3542 19.8466 16.4441 19.8997C16.5341 19.9527 16.6363 19.9814 16.7407 19.9829C16.8452 19.9844 16.9482 19.9585 17.0396 19.908L20.6324 17.928C20.7261 17.8761 20.8043 17.8001 20.8587 17.7077C20.9132 17.6154 20.9419 17.5102 20.9419 17.403C20.9419 17.2958 20.9132 17.1906 20.8587 17.0983C20.8043 17.0059 20.7261 16.9299 20.6324 16.878Z" fill="#BABABA"/>
</svg>
